# xmcd CD database file
#
# Track frame offsets:
#	150
#	29122
#	51532
#	74089
#	98981
#	121457
#	142324
#	158810
#	181124
#	199834
#	222603
#
# Disc length: 3303 seconds
#
# Revision: 3
# Processed by: cddbd v1.5PL3 Copyright (c) Steve Scherf et al.
# Submitted via: CDex 1.51
#
DISCID=ad0ce50b,bb0ce50b
DTITLE=Creed - My Own Prison
DYEAR=1900
DGENRE=
TTITLE0=Torn
TTITLE1=Ode
TTITLE2=My Own Prison
TTITLE3=Pits For a Time
TTITLE4=In America
TTITLE5=Illusion
TTITLE6=Unforgiven
TTITLE7=Sister
TTITLE8=What´s This Life For
TTITLE9=One
TTITLE10=Bound and Tired
EXTD=
EXTT0=
EXTT1=
EXTT2=
EXTT3=
EXTT4=
EXTT5=
EXTT6=
EXTT7=
EXTT8=
EXTT9=
EXTT10=
PLAYORDER=
